<mxfile host="app.diagrams.net" modified="2024-10-06T15:19:50.451Z" agent="Mozilla/5.0 (X11; Linux x86_64) AppleWebKit/537.36 (KHTML, like Gecko) Chrome/129.0.0.0 Safari/537.36" version="24.2.2" etag="yGZF-TYHeQyLnI6mUccD" type="github">
  <diagram name="Page-1" id="tErf0rl4CvOmd_SucAMC">
    <mxGraphModel>
      <root>
        <mxCell id="0" />
        <mxCell id="1" parent="0" />
      </root>
    </mxGraphModel>
  </diagram>
</mxfile>
